<?xml version="1.0" encoding="utf-8"?>
<!-- Generator: Adobe Illustrator 16.0.4, SVG Export Plug-In . SVG Version: 6.00 Build 0)  -->
<!DOCTYPE svg PUBLIC "-//W3C//DTD SVG 1.1//EN" "http://www.w3.org/Graphics/SVG/1.1/DTD/svg11.dtd">
<svg version="1.1" id="Capa_1" xmlns="http://www.w3.org/2000/svg" xmlns:xlink="http://www.w3.org/1999/xlink" x="0px" y="0px"
	 width="47px" height="47px" viewBox="0 0 47 47" enable-background="new 0 0 47 47" xml:space="preserve">
<g>
	<g id="Layer_1_46_">
		<g>
			<path fill="#FFFFFF" d="M34.183,0H12.819C8.696,0,5.341,3.354,5.341,7.478v32.045c0,4.123,3.354,7.478,7.478,7.478h21.364
				c4.123,0,7.478-3.354,7.478-7.478V7.478C41.661,3.354,38.306,0,34.183,0z M23.501,44.062c-1.474,0-2.671-1.194-2.671-2.67
				s1.197-2.67,2.671-2.67c1.475,0,2.671,1.194,2.671,2.67C26.172,42.866,24.976,44.062,23.501,44.062z M37.388,35.784H9.614V7.478
				c0-1.768,1.438-3.205,3.205-3.205h21.364c1.769,0,3.205,1.438,3.205,3.205V35.784L37.388,35.784z"/>
			<path fill="#FFFFFF" d="M19.317,21.063c1.06-1.052,2.495-1.979,4.204-2.658c-0.661-0.224-1.051-0.912-0.867-1.596
				c0.19-0.713,0.922-1.137,1.634-0.945c0.713,0.19,1.137,0.924,0.943,1.637c-0.039,0.146-0.113,0.273-0.193,0.392
				c0.092-0.025,0.182-0.057,0.273-0.082c1.121-0.3,2.215-0.463,3.26-0.516c-0.264-2.363-3.168-4.859-7.158-5.93
				c-4.624-1.238-8.946-0.095-9.655,2.548c-0.369,1.378,0.319,2.89,1.709,4.199l-1.132,3.437c-0.062,0.192-0.013,0.402,0.132,0.545
				c0,0,0,0,0,0.001c0.145,0.143,0.355,0.192,0.549,0.127l4.757-1.606c0.348,0.122,0.704,0.237,1.072,0.335
				C19.003,20.992,19.159,21.024,19.317,21.063z M17.602,15.507c-0.19,0.712-0.923,1.134-1.635,0.942
				c-0.713-0.19-1.135-0.921-0.943-1.634c0.19-0.712,0.922-1.137,1.635-0.945C17.37,14.061,17.793,14.794,17.602,15.507z
				 M18.838,15.813c0.191-0.713,0.923-1.137,1.635-0.945c0.713,0.19,1.136,0.924,0.945,1.636s-0.925,1.134-1.636,0.942
				C19.069,17.255,18.647,16.524,18.838,15.813z"/>
			<path fill="#FFFFFF" d="M35.245,21.39c-0.709-2.644-5.031-3.786-9.656-2.548c-4.622,1.238-7.793,4.39-7.085,7.034
				c0.71,2.647,5.032,3.791,9.656,2.551c0.365-0.098,0.723-0.213,1.07-0.334l4.756,1.605c0.193,0.062,0.404,0.016,0.551-0.128l0,0
				c0.146-0.146,0.191-0.354,0.131-0.545l-1.131-3.438C34.924,24.279,35.612,22.768,35.245,21.39z M23.405,25.918
				c-0.713,0.19-1.445-0.229-1.636-0.939c-0.191-0.713,0.232-1.446,0.945-1.638c0.711-0.191,1.443,0.232,1.634,0.945
				C24.54,24.999,24.118,25.729,23.405,25.918z M27.222,24.922c-0.714,0.19-1.445-0.229-1.638-0.942
				c-0.19-0.711,0.23-1.444,0.943-1.636c0.715-0.19,1.443,0.233,1.637,0.945C28.354,24.002,27.933,24.732,27.222,24.922z
				 M31.036,23.927c-0.713,0.191-1.445-0.229-1.637-0.943c-0.189-0.712,0.23-1.445,0.943-1.637c0.713-0.19,1.443,0.234,1.635,0.946
				C32.17,23.006,31.749,23.735,31.036,23.927z"/>
		</g>
	</g>
</g>
</svg>
